<svg width="200" height="200" viewBox="0 0 200 200" fill="none" xmlns="http://www.w3.org/2000/svg">
<g clip-path="url(#clip0)">
<path d="M145.215 88.5559L145.219 88.5513L145.174 88.5254C144.389 87.97 124.364 76.5122 124.364 76.5122C122.649 75.2411 120.628 74.3347 118.311 73.7549V45.9503C123.788 44.5053 129.266 44.5664 134.908 45.8176C136.52 46.1762 138.13 45.8908 139.743 44.96C144.737 42.0761 148.77 34.5963 148.77 27.9312C148.77 24.527 147.783 22.5372 146.37 21.4462L124.988 9.0149C124.341 8.59528 123.624 8.33588 122.876 8.20771C118.237 6.98701 113.347 6.75355 108.008 7.72553L95.4498 0.418098L95.4483 0.421149C94.2459 -0.234978 92.6865 -0.146477 90.9653 0.84687C87.0956 3.08076 83.873 9.02405 83.873 14.18V18.6935C63.7283 32.4738 50.0275 56.2836 50.0275 79.2755C50.0275 91.684 52.8976 99.176 58.8333 102.823C58.8333 102.824 58.8333 102.835 58.8333 102.835C58.8333 102.835 79.9027 116.154 84.5184 116.957V145.963C75.6561 148.929 68.2434 148.267 60.6674 145.335C59.2163 144.667 57.2815 144.928 55.3482 146.045C50.3525 148.929 46.4844 156.316 46.4844 162.981C46.4844 166.168 47.3038 168.335 48.7412 169.618C48.7412 169.618 69.725 182.507 71.8948 182.979C75.8911 184.428 80.1056 185.173 84.5078 185.208C84.996 186.33 85.7346 187.12 86.6592 187.508L86.6577 187.517C86.6577 187.517 107.396 199.57 107.61 199.667L107.637 199.683L107.639 199.678C108.852 200.221 110.378 200.084 112.022 199.135C115.892 196.901 118.951 191.054 118.951 185.895V173.004C139.423 158.606 153.279 134.918 153.279 111.282C153.281 99.9497 150.729 92.4942 145.215 88.5559Z" fill="#06B889" fill-opacity="0.5"/>
<path d="M112.022 13.0478C115.892 10.8139 118.951 13.1302 118.951 18.2861V23.0133C128.461 19.0262 136.52 18.457 143.933 20.4086C146.513 20.8527 148.77 22.7783 148.77 27.9312C148.77 34.5963 144.737 42.0761 139.743 44.96C138.13 45.8908 136.52 46.1762 134.908 45.8176C129.266 44.5664 123.789 44.5053 118.311 45.9503V87.2086C142.809 81.2302 153.281 88.2919 153.281 111.282C153.281 134.918 139.423 158.606 118.951 173.004V185.895C118.951 191.054 115.892 196.899 112.022 199.133C108.154 201.369 104.932 199.149 104.932 193.99V180.666C92.8452 185.925 81.7261 186.542 71.8964 182.979C69.1575 182.198 67.5431 179.694 67.5431 175.18C67.5431 168.515 71.4127 161.128 76.4069 158.244C78.3417 157.129 80.2766 156.866 81.7261 157.536C89.3021 160.466 96.7148 161.128 105.579 158.163V115.833C82.0481 121.252 71.0862 115.762 71.0862 91.4749C71.0862 68.4845 84.787 44.6732 104.932 30.8945V26.3809C104.932 21.225 108.154 15.2817 112.022 13.0478ZM105.577 90.0452V52.0111C95.2637 59.256 90.1063 69.5374 90.1063 78.9932C90.1063 88.0158 93.1657 91.835 105.577 90.0452ZM118.311 112.561V151.668C128.624 144.212 134.265 134.079 134.265 123.761C134.265 114.311 130.718 110.558 118.311 112.561Z" fill="#06D6A0"/>
</g>
<defs>
<clipPath id="clip0">
<rect width="200" height="200" fill="white"/>
</clipPath>
</defs>
</svg>
