<svg width="50" height="50" viewBox="0 0 50 50" fill="none" xmlns="http://www.w3.org/2000/svg">
<path d="M25 0C11.1832 0 0 11.1813 0 25C0 29.385 1.14365 33.6678 3.31535 37.4451L0.094223 47.448C-0.130463 48.1453 0.0541687 48.9098 0.572205 49.4278C1.08528 49.9409 1.84784 50.1324 2.55203 49.9058L12.5549 46.6846C16.3322 48.8564 20.615 50 25 50C38.8168 50 50 38.8187 50 25C50 11.1832 38.8187 0 25 0ZM25 46.0938C21.0392 46.0938 17.1783 44.9886 13.8348 42.8978C13.3537 42.5972 12.7563 42.5159 12.2005 42.6949L4.97971 45.0203L7.30515 37.7995C7.48138 37.2517 7.407 36.6535 7.10182 36.1652C5.01137 32.8217 3.90625 28.9608 3.90625 25C3.90625 13.369 13.369 3.90625 25 3.90625C36.631 3.90625 46.0938 13.369 46.0938 25C46.0938 36.631 36.631 46.0938 25 46.0938ZM27.4414 25C27.4414 26.3481 26.3485 27.4414 25 27.4414C23.6515 27.4414 22.5586 26.3481 22.5586 25C22.5586 23.6515 23.6515 22.5586 25 22.5586C26.3485 22.5586 27.4414 23.6515 27.4414 25ZM37.207 25C37.207 26.3481 36.1141 27.4414 34.7656 27.4414C33.4171 27.4414 32.3242 26.3481 32.3242 25C32.3242 23.6515 33.4171 22.5586 34.7656 22.5586C36.1141 22.5586 37.207 23.6515 37.207 25ZM17.6758 25C17.6758 26.3481 16.5829 27.4414 15.2344 27.4414C13.8863 27.4414 12.793 26.3481 12.793 25C12.793 23.6515 13.8863 22.5586 15.2344 22.5586C16.5829 22.5586 17.6758 23.6515 17.6758 25Z" fill="#06D6A0"/>
</svg>
