<svg width="25" height="25" viewBox="0 0 25 25" fill="none" xmlns="http://www.w3.org/2000/svg">
<g clip-path="url(#clip0)">
<path d="M12.5017 0C8.93023 0 6.01074 2.91949 6.01074 6.49094C6.01074 10.0624 8.93023 12.9819 12.5017 12.9819C16.0731 12.9819 18.9926 10.0624 18.9926 6.49094C18.9926 2.91949 16.0731 0 12.5017 0Z" fill="#06D6A0"/>
<path d="M23.6412 18.169C23.4712 17.7438 23.2444 17.347 22.9893 16.9785C21.6855 15.051 19.673 13.7755 17.4055 13.4637C17.122 13.4354 16.8102 13.492 16.5835 13.6621C15.393 14.5408 13.9758 14.9943 12.5018 14.9943C11.0278 14.9943 9.61064 14.5408 8.42015 13.6621C8.19338 13.492 7.88158 13.407 7.59816 13.4637C5.33058 13.7755 3.28978 15.051 2.01428 16.9785C1.75918 17.347 1.5324 17.7722 1.36237 18.169C1.27736 18.339 1.30568 18.5374 1.39069 18.7075C1.61747 19.1043 1.90089 19.5012 2.15599 19.8413C2.5528 20.3799 2.97799 20.8617 3.45987 21.3152C3.85668 21.712 4.31018 22.0805 4.76374 22.449C7.00294 24.1214 9.69571 25 12.4735 25C15.2513 25 17.944 24.1213 20.1832 22.449C20.6367 22.1089 21.0902 21.712 21.4871 21.3152C21.9406 20.8617 22.3941 20.3798 22.791 19.8413C23.0744 19.4728 23.3296 19.1043 23.5563 18.7075C23.6979 18.5374 23.7263 18.339 23.6412 18.169Z" fill="#06D6A0"/>
</g>
<defs>
<clipPath id="clip0">
<rect width="25" height="25" fill="white"/>
</clipPath>
</defs>
</svg>
