<svg width="50" height="50" viewBox="0 0 50 50" fill="none" xmlns="http://www.w3.org/2000/svg">
<path d="M33.1436 25.2563L49.9998 35.9125V14.15L33.1436 25.2563Z" fill="#06D6A0"/>
<path d="M0 14.15V35.9125L16.8563 25.2563L0 14.15Z" fill="#06D6A0"/>
<path d="M46.875 7.8125H3.125C1.56563 7.8125 0.328125 8.975 0.09375 10.4719L25 26.8813L49.9063 10.4719C49.6719 8.975 48.4344 7.8125 46.875 7.8125Z" fill="#06D6A0"/>
<path d="M30.2813 27.1437L25.8595 30.0562C25.597 30.2281 25.3001 30.3125 25.0001 30.3125C24.7001 30.3125 24.4032 30.2281 24.1407 30.0562L19.7188 27.1406L0.100098 39.55C0.340723 41.0344 1.57197 42.1875 3.1251 42.1875H46.8751C48.4282 42.1875 49.6595 41.0344 49.9001 39.55L30.2813 27.1437Z" fill="#06D6A0"/>
</svg>
