<svg width="825" height="133" viewBox="0 0 825 133" fill="none" xmlns="http://www.w3.org/2000/svg">
<path d="M55.08 102.92C61.28 102.92 67.12 102.04 72.6 100.28C78.08 98.48 82.7 96.24 86.46 93.56L78.06 77.06C75.38 79.18 72.1 80.84 68.22 82.04C64.38 83.24 60.38 83.84 56.22 83.84C49.7 83.84 43.84 82.42 38.64 79.58C33.44 76.74 29.34 72.88 26.34 68C23.34 63.12 21.84 57.64 21.84 51.56C21.84 45.48 23.34 40 26.34 35.12C29.34 30.24 33.44 26.38 38.64 23.54C43.84 20.7 49.7 19.28 56.22 19.28C60.38 19.28 64.38 19.88 68.22 21.08C72.1 22.28 75.38 23.94 78.06 26.06L86.46 9.56C82.58 6.75999 77.88 4.49999 72.36 2.77999C66.84 1.06 61.04 0.199996 54.96 0.199996C47.52 0.199996 40.52 1.52 33.96 4.16C27.44 6.79999 21.68 10.48 16.68 15.2C11.72 19.88 7.82 25.34 4.98 31.58C2.18 37.78 0.78 44.46 0.78 51.62C0.78 58.74 2.18 65.4 4.98 71.6C7.82 77.8 11.72 83.26 16.68 87.98C21.68 92.66 27.46 96.32 34.02 98.96C40.58 101.6 47.6 102.92 55.08 102.92ZM99.6178 101H118.038V66.68C118.038 64.4 118.698 62.28 120.018 60.32C121.378 58.32 123.118 56.7 125.238 55.46C127.398 54.22 129.678 53.6 132.078 53.6C135.558 53.6 138.838 54.6 141.918 56.6L149.598 41.06C147.998 40.06 146.038 39.24 143.718 38.6C141.438 37.96 139.218 37.64 137.058 37.64C133.258 37.64 129.698 38.58 126.378 40.46C123.098 42.3 120.318 44.94 118.038 48.38V39.56H99.6178V101ZM157.332 132.2H178.392L225.372 39.56H204.252L187.932 75.56L169.092 39.56H147.972L177.192 93.32L157.332 132.2ZM235.555 132.2H253.975V92.9C256.695 96.1 259.915 98.58 263.635 100.34C267.355 102.06 271.315 102.92 275.515 102.92C281.275 102.92 286.435 101.5 290.995 98.66C295.595 95.78 299.215 91.88 301.855 86.96C304.495 82 305.815 76.44 305.815 70.28C305.815 64.04 304.475 58.46 301.795 53.54C299.155 48.62 295.515 44.74 290.875 41.9C286.275 39.06 281.015 37.64 275.095 37.64C270.855 37.64 266.895 38.48 263.215 40.16C259.535 41.8 256.455 44.1 253.975 47.06V39.56H235.555V132.2ZM270.055 87.26C265.255 87.26 261.295 85.68 258.175 82.52C255.055 79.32 253.495 75.26 253.495 70.34C253.495 65.42 255.055 61.36 258.175 58.16C261.335 54.92 265.295 53.3 270.055 53.3C274.775 53.3 278.675 54.92 281.755 58.16C284.875 61.36 286.435 65.44 286.435 70.4C286.435 75.32 284.895 79.36 281.815 82.52C278.735 85.68 274.815 87.26 270.055 87.26ZM343.22 102.92C345.7 102.92 348.22 102.6 350.78 101.96C353.38 101.32 355.72 100.44 357.8 99.32L353.18 84.56C351.46 85.84 349.62 86.48 347.66 86.48C344.06 86.48 342.26 84.12 342.26 79.4V53.54H355.76V39.56H342.26V16.52H323.84V39.56H315.62V53.54H323.84V80.72C323.84 87.72 325.54 93.18 328.94 97.1C332.38 100.98 337.14 102.92 343.22 102.92ZM404.319 102.92C411.119 102.92 417.239 101.54 422.679 98.78C428.119 95.98 432.419 92.14 435.579 87.26C438.779 82.34 440.379 76.68 440.379 70.28C440.379 63.88 438.779 58.24 435.579 53.36C432.419 48.44 428.119 44.6 422.679 41.84C417.239 39.04 411.119 37.64 404.319 37.64C397.559 37.64 391.439 39.04 385.959 41.84C380.519 44.6 376.199 48.44 372.999 53.36C369.839 58.24 368.259 63.88 368.259 70.28C368.259 76.68 369.839 82.34 372.999 87.26C376.199 92.14 380.519 95.98 385.959 98.78C391.439 101.54 397.559 102.92 404.319 102.92ZM404.319 87.2C401.199 87.2 398.359 86.48 395.799 85.04C393.279 83.6 391.279 81.62 389.799 79.1C388.319 76.54 387.579 73.6 387.579 70.28C387.579 66.96 388.319 64.04 389.799 61.52C391.279 58.96 393.279 56.96 395.799 55.52C398.359 54.08 401.199 53.36 404.319 53.36C407.479 53.36 410.319 54.08 412.839 55.52C415.399 56.96 417.419 58.96 418.899 61.52C420.419 64.04 421.179 66.96 421.179 70.28C421.179 73.6 420.419 76.54 418.899 79.1C417.419 81.62 415.399 83.6 412.839 85.04C410.319 86.48 407.479 87.2 404.319 87.2Z" fill="#171717"/>
<path d="M459.328 101H478.768V63.02H493.048C499.488 63.02 505.208 61.8 510.208 59.36C515.248 56.88 519.188 53.32 522.028 48.68C524.908 44.04 526.348 38.44 526.348 31.88C526.348 25.28 524.908 19.76 522.028 15.32C519.188 10.88 515.248 7.56 510.208 5.35999C505.208 3.11999 499.488 1.99999 493.048 1.99999H459.328V101ZM478.768 47.48V17.54H487.048C490.448 17.54 493.588 18.04 496.468 19.04C499.348 20 501.648 21.58 503.368 23.78C505.128 25.94 506.008 28.84 506.008 32.48C506.008 36.08 505.128 38.98 503.368 41.18C501.648 43.38 499.348 44.98 496.468 45.98C493.588 46.98 490.448 47.48 487.048 47.48H478.768ZM538.602 101H557.022V66.68C557.022 64.4 557.682 62.28 559.002 60.32C560.362 58.32 562.102 56.7 564.222 55.46C566.382 54.22 568.662 53.6 571.062 53.6C574.542 53.6 577.822 54.6 580.902 56.6L588.582 41.06C586.982 40.06 585.022 39.24 582.702 38.6C580.422 37.96 578.202 37.64 576.042 37.64C572.242 37.64 568.682 38.58 565.362 40.46C562.082 42.3 559.302 44.94 557.022 48.38V39.56H538.602V101ZM608.017 26.78C611.017 26.78 613.577 25.7 615.697 23.54C617.817 21.38 618.877 18.8 618.877 15.8C618.877 12.8 617.817 10.24 615.697 8.11999C613.577 6 611.017 4.94 608.017 4.94C604.977 4.94 602.377 6 600.217 8.11999C598.097 10.24 597.037 12.8 597.037 15.8C597.037 18.84 598.097 21.44 600.217 23.6C602.377 25.72 604.977 26.78 608.017 26.78ZM598.777 101H617.197V39.56H598.777V101ZM667.655 102.92C671.695 102.92 675.495 102.34 679.055 101.18C682.615 100.06 685.555 98.64 687.875 96.92L681.575 84.5C678.735 86.7 675.055 87.8 670.535 87.8C666.975 87.8 663.835 87.02 661.115 85.46C658.435 83.9 656.355 81.8 654.875 79.16C653.395 76.48 652.655 73.52 652.655 70.28C652.655 67.32 653.335 64.5 654.695 61.82C656.095 59.14 658.115 56.96 660.755 55.28C663.395 53.6 666.615 52.76 670.415 52.76C674.935 52.76 678.655 53.86 681.575 56.06L687.875 43.64C685.635 41.88 682.675 40.44 678.995 39.32C675.355 38.2 671.555 37.64 667.595 37.64C662.675 37.64 658.135 38.52 653.975 40.28C649.815 42.04 646.195 44.44 643.115 47.48C640.035 50.52 637.635 54 635.915 57.92C634.195 61.84 633.335 65.98 633.335 70.34C633.335 74.9 634.235 79.16 636.035 83.12C637.835 87.04 640.315 90.48 643.475 93.44C646.635 96.4 650.275 98.72 654.395 100.4C658.555 102.08 662.975 102.92 667.655 102.92ZM732.302 102.92C738.782 102.92 744.662 101.52 749.942 98.72C755.222 95.92 759.302 92.04 762.182 87.08L748.922 80.42C746.642 83.14 744.262 85.12 741.782 86.36C739.342 87.6 736.522 88.22 733.322 88.22C728.202 88.22 724.082 86.8 720.962 83.96C717.842 81.12 716.282 77.36 716.282 72.68H763.382C763.502 71.64 763.562 70.94 763.562 70.58C763.602 70.18 763.622 69.72 763.622 69.2C763.622 62.92 762.262 57.42 759.542 52.7C756.862 47.98 753.102 44.3 748.262 41.66C743.462 38.98 737.862 37.64 731.462 37.64C725.062 37.64 719.282 39.1 714.122 42.02C709.002 44.9 704.922 48.8 701.882 53.72C698.842 58.64 697.322 64.16 697.322 70.28C697.322 76.48 698.842 82.04 701.882 86.96C704.962 91.88 709.142 95.78 714.422 98.66C719.702 101.5 725.662 102.92 732.302 102.92ZM716.942 62.48C717.342 58.92 718.822 56.12 721.382 54.08C723.942 52.04 727.222 51.02 731.222 51.02C735.022 51.02 738.182 52.04 740.702 54.08C743.262 56.12 744.862 58.92 745.502 62.48H716.942ZM797.174 102.92C805.654 102.92 812.254 101.12 816.974 97.52C821.734 93.88 824.114 88.72 824.114 82.04C824.114 78.4 823.434 75.5 822.074 73.34C820.714 71.14 818.834 69.36 816.434 68C814.074 66.64 811.354 65.4 808.274 64.28C806.394 63.6 804.414 62.86 802.334 62.06C800.294 61.22 798.554 60.26 797.114 59.18C795.714 58.1 795.014 56.86 795.014 55.46C795.014 53.94 795.694 52.68 797.054 51.68C798.414 50.68 800.234 50.18 802.514 50.18C806.554 50.18 811.174 51.84 816.374 55.16L822.674 43.34C815.074 39.62 808.314 37.76 802.394 37.76C797.514 37.76 793.194 38.58 789.434 40.22C785.714 41.86 782.794 44.14 780.674 47.06C778.554 49.94 777.494 53.28 777.494 57.08C777.494 60.24 778.194 62.84 779.594 64.88C781.034 66.88 782.894 68.54 785.174 69.86C787.454 71.18 789.834 72.36 792.314 73.4C796.634 75.2 799.814 76.62 801.854 77.66C803.894 78.66 804.914 80.34 804.914 82.7C804.914 84.82 804.194 86.46 802.754 87.62C801.354 88.74 799.494 89.3 797.174 89.3C791.494 89.3 786.014 86.5 780.734 80.9L772.994 93.26C778.514 99.7 786.574 102.92 797.174 102.92Z" fill="#06D6A0"/>
</svg>
